<!-- Generated by IcoMoon.io -->
<svg version="1.1" xmlns="http://www.w3.org/2000/svg" width="32" height="32" viewBox="0 0 32 32">
<title>beta</title>
<path d="M25.837 9.456c-0.368-1.22-1.21-3.906-1.683-4.576-1.659-2.35-5.492-4.879-9.986-4.879-3.28 0-6.386 1.321-8.744 3.72-2.333 2.374-3.646 5.5-3.697 8.802-0.032 2.050 0.41 4.013 1.313 5.836 0.79 1.595 1.926 3.028 3.302 4.168v9.474h13.705v-5.302h2.203c2.716 0 4.926-2.21 4.926-4.926v-2.632l3.097-1.3-4.437-8.384zM20.583 13.006h-1.987c-0.123 0.617-0.366 1.192-0.703 1.699l1.408 1.408-1.326 1.326-1.406-1.406c-0.506 0.339-1.080 0.583-1.697 0.707v1.989h-1.875v-1.987c-0.617-0.123-1.192-0.366-1.698-0.703l-1.408 1.408-1.326-1.326 1.406-1.406c-0.339-0.506-0.583-1.080-0.707-1.697h-1.989v-1.875h1.987c0.123-0.617 0.366-1.192 0.703-1.699l-1.408-1.408 1.326-1.326 1.406 1.406c0.506-0.339 1.080-0.583 1.697-0.707v-1.989h1.875v1.987c0.617 0.123 1.192 0.366 1.699 0.703l1.408-1.408 1.326 1.326-1.406 1.406c0.339 0.506 0.583 1.080 0.707 1.697h1.989v1.875z"></path>
<path d="M13.929 9.19c-1.591 0-2.885 1.294-2.885 2.885s1.294 2.885 2.885 2.885c1.591 0 2.885-1.294 2.885-2.885s-1.294-2.885-2.885-2.885z"></path>
</svg>
