<!-- Generated by IcoMoon.io -->
<svg version="1.1" xmlns="http://www.w3.org/2000/svg" width="32" height="32" viewBox="0 0 32 32">
<title>computer</title>
<path d="M29 5h-16v-2c0-0.553-0.447-1-1-1h-11c-0.552 0-1 0.447-1 1v26c0 0.552 0.448 1 1 1h11c0.553 0 1-0.448 1-1v-1h13c0.552 0 1-0.448 1-1s-0.448-1-1-1h-3.18l-0.6-3h6.78c1.654 0 3-1.346 3-3v-12c0-1.654-1.346-3-3-3zM5 23.5c0-0.827 0.673-1.5 1.5-1.5s1.5 0.673 1.5 1.5-0.673 1.5-1.5 1.5-1.5-0.673-1.5-1.5zM8 18h-3c-0.553 0-1-0.448-1-1s0.447-1 1-1h3c0.553 0 1 0.448 1 1s-0.447 1-1 1zM2 14v-2h9v2zM11 7v2h-9v-2zM13 23h2.78l-0.6 3h-2.18zM13 19c0-1.208 0-10.43 0-12h16c0.551 0 1 0.449 1 1v11z"></path>
</svg>
