<!-- Generated by IcoMoon.io -->
<svg version="1.1" xmlns="http://www.w3.org/2000/svg" width="32" height="32" viewBox="0 0 32 32">
<title>database</title>
<path d="M16 0c-7.476 0-13.333 2.636-13.333 6s5.857 6 13.333 6 13.333-2.636 13.333-6-5.857-6-13.333-6zM16 10.667c-7.072 0-12-2.46-12-4.667s4.928-4.667 12-4.667 12 2.46 12 4.667-4.928 4.667-12 4.667z"></path>
<path d="M28.667 12c-0.368 0-0.667 0.299-0.667 0.667 0 2.207-4.928 4.667-12 4.667s-12-2.46-12-4.667c0-0.368-0.299-0.667-0.667-0.667s-0.667 0.299-0.667 0.667c0 3.364 5.857 6 13.333 6s13.333-2.636 13.333-6c0-0.368-0.299-0.667-0.667-0.667z"></path>
<path d="M28.667 18.667c-0.368 0-0.667 0.299-0.667 0.667 0 2.207-4.928 4.667-12 4.667s-12-2.46-12-4.667c0-0.368-0.299-0.667-0.667-0.667s-0.667 0.299-0.667 0.667c0 3.364 5.857 6 13.333 6s13.333-2.636 13.333-6c0-0.368-0.299-0.667-0.667-0.667z"></path>
<path d="M28.667 5.333c-0.368 0-0.667 0.299-0.667 0.667v20c0 2.207-4.928 4.667-12 4.667s-12-2.46-12-4.667v-20c0-0.368-0.299-0.667-0.667-0.667s-0.667 0.299-0.667 0.667v20c0 3.364 5.857 6 13.333 6s13.333-2.636 13.333-6v-20c0-0.368-0.299-0.667-0.667-0.667z"></path>
</svg>
