<!-- Generated by IcoMoon.io -->
<svg version="1.1" xmlns="http://www.w3.org/2000/svg" width="32" height="32" viewBox="0 0 32 32">
<title>development</title>
<path d="M21.9 10.525l1.587-1.587-1.768-1.768-1.587 1.587c-0.398-0.235-0.83-0.418-1.288-0.536v-2.221h-2.5v2.221c-0.458 0.118-0.89 0.301-1.288 0.536l-1.587-1.587-1.768 1.768 1.587 1.587c-0.235 0.398-0.418 0.83-0.536 1.288h-2.283v2.5h2.283c0.118 0.458 0.301 0.89 0.536 1.288l-1.587 1.587 1.768 1.768 1.587-1.587c0.398 0.235 0.83 0.418 1.288 0.536v2.221h2.5v-2.221c0.458-0.118 0.89-0.301 1.288-0.536l1.587 1.587 1.768-1.768-1.587-1.587c0.235-0.398 0.418-0.83 0.536-1.288h2.283v-2.5h-2.283c-0.118-0.458-0.301-0.89-0.536-1.288zM17.594 15.5c-1.381 0-2.5-1.119-2.5-2.5s1.119-2.5 2.5-2.5 2.5 1.119 2.5 2.5c0 1.381-1.119 2.5-2.5 2.5zM30.907 13.539c-0.001 2.060-0.491 4.071-1.456 5.977-1.132 2.236-1.731 4.785-1.731 7.37v5.114h-2.5v-5.114c0-2.975 0.692-5.914 2.001-8.499 0.787-1.553 1.186-3.185 1.187-4.849 0.003-6.041-4.95-10.992-11-11.038-5.066 0-9.644 3.682-10.813 8.688l-2.981 5.843c-0.011 0.021-0.039 0.075 0.005 0.148s0.106 0.072 0.129 0.072h2.597v6.063c0 0.689 0.561 1.25 1.25 1.25h6.188v7.438h-2.5v-4.938h-3.688c-2.068 0-3.75-1.682-3.75-3.75v-3.563h-0.097c-0.932 0-1.778-0.475-2.263-1.271s-0.52-1.765-0.094-2.594l2.827-5.491c0.711-2.891 2.379-5.513 4.71-7.397 2.42-1.956 5.449-3.020 8.533-2.998 3.595 0.027 6.972 1.447 9.51 3.998 2.541 2.555 3.939 5.943 3.937 9.54z"></path>
</svg>
