<!-- Generated by IcoMoon.io -->
<svg version="1.1" xmlns="http://www.w3.org/2000/svg" width="32" height="32" viewBox="0 0 32 32">
<title>effect</title>
<path d="M21.707 6.293c-0.391-0.391-1.023-0.391-1.414 0l-20 20c-0.391 0.391-0.391 1.023 0 1.414l4 4c0.195 0.195 0.451 0.293 0.707 0.293s0.512-0.098 0.707-0.293l20-20c0.391-0.391 0.391-1.023 0-1.414 0 0-4-4-4-4zM5 29.586l-2.586-2.586 13.586-13.586 2.586 2.586c0-0-13.586 13.586-13.586 13.586zM20 14.586l-2.586-2.586 3.586-3.586 2.586 2.586z"></path>
<path d="M14 8c1-2 2-3 4-4-2-1-3-2-4-4-1 2-2 3-4 4 2 1 3 2 4 4z"></path>
<path d="M30 14c-0.5 1-1 1.5-2 2 1 0.5 1.5 1 2 2 0.5-1 1-1.5 2-2-1-0.5-1.5-1-2-2z"></path>
<path d="M30 3c-1.5-0.75-2.25-1.5-3-3-0.75 1.5-1.5 2.25-3 3 1.5 0.75 2.25 1.5 3 3 0.75-1.5 1.5-2.25 3-3z"></path>
</svg>
