<!-- Generated by IcoMoon.io -->
<svg version="1.1" xmlns="http://www.w3.org/2000/svg" width="32" height="32" viewBox="0 0 32 32">
<title>golang</title>
<path d="M15.12 1.28c-2.241 0.145-4.28 0.905-5.494 2.047l-0.164 0.154-0.084-0.043c-1.223-0.624-2.751-0.13-3.384 1.095-0.716 1.387-0.035 3.092 1.433 3.586l0.162 0.054 0.005 3.178 0.005 3.178-1.178 1.18c-1.209 1.212-1.25 1.258-1.314 1.48-0.204 0.712 0.445 1.386 1.157 1.2 0.235-0.061 0.299-0.109 0.801-0.607l0.477-0.473-0.013 0.13c-0.026 0.259-0.114 0.842-0.211 1.4-0.365 2.108-0.448 4.184-0.208 5.2 0.281 1.192 0.864 2.223 1.787 3.166l0.309 0.316-0.711 0.714c-0.819 0.823-0.831 0.838-0.876 1.158-0.096 0.676 0.53 1.23 1.197 1.059 0.248-0.064 0.3-0.106 1.176-0.979l0.824-0.821 0.376 0.183c2.85 1.388 6.978 1.34 9.587-0.111l0.149-0.083 0.85 0.846c0.91 0.907 0.926 0.919 1.182 0.974 0.801 0.172 1.434-0.651 1.067-1.387-0.040-0.080-0.219-0.273-0.773-0.828l-0.721-0.723 0.229-0.227c1.386-1.374 2.006-2.84 2-4.727-0.005-1.478-0.077-2.224-0.393-4.060-0.059-0.344-0.113-0.717-0.159-1.099l-0.012-0.099 0.475 0.472c0.348 0.346 0.503 0.486 0.58 0.525 0.852 0.428 1.728-0.436 1.311-1.294-0.066-0.135-0.138-0.212-1.248-1.317l-1.178-1.173 0.005-3.174 0.005-3.174 0.11-0.035c1.699-0.534 2.33-2.596 1.228-4.014-0.71-0.913-2.027-1.223-3.051-0.717l-0.142 0.070-0.128-0.115c-1.656-1.485-4.287-2.264-7.046-2.085zM8.513 5.158c0.042 0.023 0.102 0.062 0.132 0.087l0.055 0.046-0.165 0.329c-0.091 0.181-0.195 0.417-0.232 0.525l-0.067 0.195-0.073-0.012c-0.302-0.051-0.531-0.326-0.527-0.633 0.006-0.436 0.5-0.738 0.877-0.538zM23.77 5.16c0.534 0.259 0.403 1.062-0.191 1.17l-0.071 0.013-0.036-0.116c-0.058-0.186-0.224-0.562-0.33-0.746l-0.098-0.17 0.043-0.047c0.158-0.172 0.45-0.216 0.683-0.103zM12.623 5.74c1.843 0.211 2.621 2.441 1.309 3.751-1.194 1.192-3.192 0.675-3.663-0.948-0.060-0.208-0.062-0.26-0.003-0.144 0.406 0.81 1.663 0.576 1.796-0.334 0.149-1.018-1.271-1.509-1.783-0.616-0.071 0.124-0.073 0.105-0.008-0.12 0.3-1.036 1.297-1.71 2.352-1.589zM19.795 5.769c1.924 0.405 2.422 2.919 0.793 4.003-1.306 0.869-3.159 0.088-3.398-1.432l-0.014-0.090 0.066 0.13c0.476 0.945 1.955 0.476 1.804-0.572-0.132-0.918-1.352-1.14-1.796-0.328-0.085 0.155-0.083 0.094 0.005-0.19 0.336-1.081 1.453-1.75 2.54-1.521zM16.070 10.181c1.046 0.099 1.42 0.716 0.646 1.067-0.812 0.368-2.096 0.087-2.096-0.458 0-0.288 0.446-0.552 1.024-0.608 0.091-0.009 0.175-0.017 0.186-0.019s0.119 0.007 0.24 0.018zM14.001 12.127c1.063 0.841 2.994 0.761 3.917-0.163 0.142-0.142 0.192-0.182 0.207-0.161 0.374 0.531 0.36 1.272-0.031 1.627-0.737 0.67-3.423 0.726-4.33 0.089-0.488-0.342-0.56-1.014-0.179-1.652l0.061-0.103 0.099 0.119c0.054 0.065 0.17 0.175 0.256 0.243zM14.907 15.194c0.351 0.050 1.572 0.050 1.937 0 0.139-0.019 0.264-0.035 0.277-0.035 0.049 0 0.016 0.832-0.037 0.952-0.251 0.564-1.012 0.487-1.185-0.12-0.023-0.081-0.035-0.104-0.036-0.068-0.016 0.603-0.891 0.772-1.178 0.227-0.060-0.114-0.098-0.991-0.043-0.991 0.013 0 0.132 0.016 0.266 0.034z"></path>
</svg>
