<!-- Generated by IcoMoon.io -->
<svg version="1.1" xmlns="http://www.w3.org/2000/svg" width="32" height="32" viewBox="0 0 32 32">
<title>php2</title>
<path d="M6.466 12.941c0.989 0 1.648 0.182 1.977 0.548s0.408 0.992 0.235 1.88c-0.18 0.925-0.526 1.585-1.040 1.98s-1.295 0.593-2.345 0.593h-1.583l0.972-5h1.783zM0.125 23.004h2.603l0.617-3.176h2.229c0.984 0 1.793-0.103 2.428-0.31s1.213-0.553 1.732-1.039c0.436-0.401 0.789-0.843 1.059-1.327s0.462-1.017 0.575-1.6c0.275-1.416 0.068-2.519-0.623-3.31s-1.789-1.185-3.294-1.185h-5.005l-2.322 11.948z"></path>
<path d="M13.281 7.879h2.582l-0.617 3.176h2.3c1.447 0 2.446 0.253 2.995 0.757s0.714 1.323 0.494 2.454l-1.080 5.56h-2.623l1.027-5.286c0.117-0.601 0.074-1.012-0.129-1.23s-0.635-0.328-1.296-0.328h-2.064l-1.33 6.845h-2.582l2.322-11.948z"></path>
<path d="M26.781 12.941c0.989 0 1.648 0.182 1.977 0.548s0.408 0.992 0.235 1.88c-0.18 0.925-0.526 1.585-1.040 1.98s-1.295 0.593-2.345 0.593h-1.583l0.972-5h1.783zM20.439 23.004h2.603l0.617-3.176h2.229c0.984 0 1.793-0.103 2.428-0.31s1.213-0.553 1.732-1.039c0.436-0.401 0.789-0.843 1.059-1.327s0.462-1.017 0.575-1.6c0.275-1.416 0.068-2.519-0.623-3.31s-1.789-1.185-3.294-1.185h-5.005l-2.322 11.948z"></path>
</svg>
