<!-- Generated by IcoMoon.io -->
<svg version="1.1" xmlns="http://www.w3.org/2000/svg" width="18" height="18" viewBox="0 0 32 32">
<title>suitcase</title>
<path d="M29.714 6.857h-6.857v-3.429c0-0.631-0.512-1.143-1.143-1.143h-11.429c-0.631 0-1.143 0.512-1.143 1.143v3.429h-6.857c-1.262 0-2.286 1.026-2.286 2.286v18.286c0 1.259 1.024 2.286 2.286 2.286h27.429c1.262 0 2.286-1.026 2.286-2.286v-18.286c0-1.259-1.024-2.286-2.286-2.286zM11.429 4.571h9.143v2.286h-9.143v-2.286zM29.714 28.571v-1.143h-27.429v-18.286h27.429v18.286h0.002l-0.002 1.143z"></path>
</svg>
